<?xml version="1.0" standalone="no"?>
<!DOCTYPE svg PUBLIC "-//W3C//DTD SVG 20010904//EN"
 "http://www.w3.org/TR/2001/REC-SVG-20010904/DTD/svg10.dtd">
<svg version="1.0" xmlns="http://www.w3.org/2000/svg"
 width="1300.000000pt" height="1300.000000pt" viewBox="0 0 1300.000000 1300.000000"
 preserveAspectRatio="xMidYMid meet">

<g transform="translate(0.000000,1300.000000) scale(0.100000,-0.100000)"
fill="#000000" stroke="none">
<path d="M6390 9807 c-107 -25 -201 -91 -270 -188 -65 -94 -84 -166 -78 -298
4 -86 9 -109 36 -163 17 -35 47 -81 67 -102 19 -21 33 -41 31 -43 -2 -3 -46
-13 -98 -23 -394 -77 -778 -276 -1056 -548 -35 -34 -69 -66 -76 -70 -6 -4 -23
-23 -38 -42 -14 -19 -49 -60 -78 -90 -132 -142 -294 -428 -373 -660 -100 -292
-115 -407 -127 -945 -9 -415 -15 -490 -51 -670 -41 -205 -82 -330 -160 -485
-98 -197 -218 -333 -404 -460 -293 -198 -366 -273 -402 -413 -19 -75 -13 -205
14 -287 38 -119 157 -256 281 -323 112 -60 -58 -57 2900 -57 2656 0 2700 0
2776 20 43 11 100 32 127 46 111 61 232 202 265 308 21 69 32 188 23 252 -10
73 -47 150 -104 215 -53 59 -184 166 -255 207 -63 36 -177 122 -231 173 -156
148 -284 376 -352 629 -67 247 -87 455 -87 922 0 442 -25 620 -125 889 -115
308 -258 536 -485 773 -281 293 -659 507 -1060 600 -58 13 -122 27 -143 31
l-38 6 39 44 c199 226 117 588 -164 722 -61 29 -86 35 -160 38 -53 3 -111 -1
-144 -8z m198 -266 c81 -42 115 -97 116 -187 0 -76 -26 -128 -82 -168 -78 -55
-200 -45 -265 23 -45 45 -57 77 -57 147 0 87 49 161 130 193 42 16 118 13 158
-8z m242 -776 c484 -84 932 -354 1210 -730 45 -60 88 -118 96 -127 7 -10 11
-18 7 -18 -3 0 1 -8 10 -17 43 -49 156 -303 200 -453 63 -209 77 -343 77 -713
1 -484 19 -692 85 -953 32 -127 115 -342 167 -429 69 -118 134 -205 148 -200
8 4 11 3 8 -1 -4 -4 7 -26 24 -50 52 -73 149 -155 318 -269 161 -109 244 -178
263 -218 10 -21 17 -60 17 -96 0 -123 -66 -227 -178 -279 l-57 -27 -2720 0
c-2657 0 -2721 0 -2770 19 -105 41 -182 147 -192 267 -11 114 26 159 266 323
177 122 250 183 337 287 210 250 328 543 395 977 17 112 22 213 29 557 7 353
11 441 30 555 80 501 349 945 758 1248 260 192 609 328 929 362 124 13 429 4
543 -15z"/>
<path d="M5840 3803 c1 -114 75 -291 164 -393 266 -304 745 -300 1002 8 86
103 153 266 154 375 l0 37 -660 0 -660 0 0 -27z"/>
</g>
</svg>
